<svg xmlns="http://www.w3.org/2000/svg" version="1.1" xmlns:xlink="http://www.w3.org/1999/xlink" xmlns:svgjs="http://svgjs.dev/svgjs" width="128" height="128" viewBox="0 0 128 128"><g transform="matrix(0.8046875,0,0,0.8046875,12.591428719898623,4.754620230263157)"><svg viewBox="0 0 82 95" data-background-color="#ffffff" preserveAspectRatio="xMidYMid meet" height="148" width="128" xmlns="http://www.w3.org/2000/svg" xmlns:xlink="http://www.w3.org/1999/xlink"><g id="tight-bounds" transform="matrix(1,0,0,1,-0.07278791292900166,-0.24049999999999727)"><svg viewBox="0 0 82.14557582585799 95.481" height="95.481" width="82.14557582585799"><g><svg viewBox="0 0 82.14557582585799 95.481" height="95.481" width="82.14557582585799"><g><svg viewBox="0 0 82.14557582585799 95.481" height="95.481" width="82.14557582585799"><g id="textblocktransform"><svg viewBox="0 0 82.14557582585799 95.481" height="95.481" width="82.14557582585799" id="textblock"><g><svg viewBox="0 0 82.14557582585799 95.481" height="95.481" width="82.14557582585799"><g><svg viewBox="0 0 82.14557582585799 95.481" height="95.481" width="82.14557582585799"><g><svg xmlns="http://www.w3.org/2000/svg" xmlns:xlink="http://www.w3.org/1999/xlink" version="1.1" x="0" y="0" viewBox="102.63100000000009 73.76100000000001 361.0040000284082 419.609" enable-background="new 0 0 566.93 566.93" xml:space="preserve" height="95.481" width="82.14557582585799" class="icon-icon-0" data-fill-palette-color="accent" id="icon-0"><g fill="#85144b" data-fill-palette-color="accent"><path d="M404.787 229.549c-7.225 0-14.053-1.592-20.251-4.358v219.915c0 5.06-4.104 9.163-9.163 9.163-5.053 0-9.163-4.104-9.163-9.163V224.271c0-1.182 0.247-2.314 0.665-3.368-7.988 5.42-17.576 8.646-27.949 8.646-6.906 0-13.466-1.458-19.444-4.005v219.562c0 5.06-4.104 9.163-9.171 9.163-5.059 0-9.155-4.104-9.155-9.163V224.271c0-1.5 0.396-2.901 1.04-4.161-8.201 5.915-18.234 9.439-29.131 9.439-6.595 0-12.864-1.33-18.616-3.644v219.201c0 5.06-4.118 9.163-9.17 9.163-5.059 0-9.163-4.104-9.163-9.163V224.271c0-0.637 0.071-1.26 0.198-1.861-7.507 4.5-16.253 7.14-25.643 7.14-7.727 0-15.015-1.804-21.553-4.939h-21.708c-35.718 0.05-64.729 29.067-64.779 64.779v100.087c0.05 35.712 29.061 64.723 64.779 64.772h23.647c5.752 22.408 26.124 39.121 50.267 39.121h138.013c28.572 0 51.943-23.371 51.943-51.95v-203.98c0-4.96-0.743-9.744-2.052-14.293C421.995 227.207 413.674 229.549 404.787 229.549zM189.379 428.591h-21.971c-21.433-0.035-39.086-17.689-39.122-39.115V289.389c0.036-21.433 17.689-39.08 39.122-39.115h21.971V428.591z" fill="#85144b" data-fill-palette-color="accent"></path><g fill="#85144b" data-fill-palette-color="accent"><path d="M404.787 215.815c-11.781 0-23.237-3.556-32.938-10.125-19.373 13.136-46.452 13.143-65.847 0-18.903 12.818-44.97 13.231-64.135 1.16-9.329 5.884-19.993 8.965-31.197 8.965-32.45 0-58.85-26.4-58.85-58.85 0-31.498 24.872-57.292 56.008-58.778 7.925-14.831 23.548-24.426 40.647-24.426 9.743 0 19.023 3.007 26.792 8.58 8.534-5.572 18.521-8.58 28.795-8.58 18.602 0 35.436 9.556 44.994 25.239 8.194 1.426 15.928 4.561 22.806 9.238 9.701-6.566 21.156-10.122 32.924-10.122 32.449 0 58.849 26.4 58.849 58.849C463.636 189.415 437.236 215.815 404.787 215.815L404.787 215.815zM371.849 185.708c2.081 0 4.154 0.732 5.824 2.193 7.535 6.602 17.165 10.239 27.114 10.239 22.706 0 41.174-18.472 41.174-41.174s-18.468-41.174-41.174-41.174c-9.941 0-19.572 3.637-27.114 10.242-3.34 2.915-8.314 2.918-11.654-0.003-6.595-5.792-14.668-9.273-23.35-10.065-3.064-0.279-5.76-2.133-7.118-4.893-5.973-12.114-18.037-19.635-31.487-19.635-8.548 0-16.806 3.138-23.248 8.838-3.509 3.103-8.827 2.929-12.131-0.396-5.395-5.445-12.57-8.441-20.208-8.441-11.866 0-22.583 7.504-26.668 18.673-1.334 3.648-4.896 6.036-8.767 5.788-1.235-0.071-1.797-0.106-2.37-0.106-22.703 0-41.174 18.471-41.174 41.174s18.472 41.174 41.174 41.174c9.425 0 18.301-3.117 25.674-9.022 3.227-2.583 7.815-2.583 11.042 0 7.38 5.901 16.26 9.022 25.678 9.022 9.956 0 19.585-3.634 27.115-10.239 3.325-2.922 8.321-2.922 11.646 0 7.528 6.605 17.151 10.239 27.101 10.239 9.948 0 19.571-3.634 27.093-10.235C367.688 186.439 369.769 185.708 371.849 185.708L371.849 185.708z" fill="#85144b" data-fill-palette-color="accent"></path></g><line x1="266.88" y1="133.644" x2="266.88" y2="133.644" fill="#85144b" data-fill-palette-color="accent"></line><line x1="318.88" y1="137.231" x2="320.104" y2="137.231" fill="#85144b" data-fill-palette-color="accent"></line></g></svg></g></svg></g></svg></g></svg></g></svg></g><g></g></svg></g><defs></defs></svg><rect width="82.14557582585799" height="95.481" fill="none" stroke="none" visibility="hidden"></rect></g></svg></g></svg>